<mxfile modified="2021-05-31T08:54:55.021Z" host="app.diagrams.net" agent="5.0 (Macintosh; Intel Mac OS X 10_15_7) AppleWebKit/537.36 (KHTML, like Gecko) Chrome/90.0.4430.212 Safari/537.36" etag="oBBkh7hI67fn53mIuPzc" version="14.7.2" type="github">
  <diagram id="Ht1M8jgEwFfnCIfOTk4-" name="Page-1">
    <mxGraphModel dx="2066" dy="1220" grid="1" gridSize="10" guides="1" tooltips="1" connect="1" arrows="1" fold="1" page="1" pageScale="1" pageWidth="1169" pageHeight="827" math="0" shadow="0">
      <root>
        <mxCell id="0" />
        <mxCell id="1" parent="0" />
        <mxCell id="Lmu7C6fmFR32TWAL60y1-8" value="Deploy service to Anthos on Prem Clusteer" style="strokeColor=#dddddd;shadow=1;strokeWidth=1;rounded=1;absoluteArcSize=1;arcSize=2;align=center;verticalAlign=bottom;whiteSpace=wrap;" vertex="1" parent="1">
          <mxGeometry x="610" y="640" width="160" height="86" as="geometry" />
        </mxCell>
        <mxCell id="-QjtrjUzRDEMRZ5MF8oH-47" value="End to End Pipeline" style="text;html=1;resizable=0;points=[];autosize=1;align=left;verticalAlign=top;spacingTop=-4;fontSize=30;fontStyle=1" parent="1" vertex="1">
          <mxGeometry x="56.5" y="64.5" width="300" height="40" as="geometry" />
        </mxCell>
        <mxCell id="SCVMTBWpLvtzJIhz15lM-1" value="" style="line;strokeWidth=2;html=1;fontSize=14;" parent="1" vertex="1">
          <mxGeometry x="52.5" y="139.5" width="1060" height="10" as="geometry" />
        </mxCell>
        <mxCell id="Lmu7C6fmFR32TWAL60y1-23" style="edgeStyle=orthogonalEdgeStyle;rounded=0;orthogonalLoop=1;jettySize=auto;html=1;exitX=1;exitY=0.5;exitDx=0;exitDy=0;" edge="1" parent="1">
          <mxGeometry relative="1" as="geometry">
            <mxPoint x="370" y="361.5" as="targetPoint" />
            <mxPoint x="297" y="361.5" as="sourcePoint" />
          </mxGeometry>
        </mxCell>
        <mxCell id="Lmu7C6fmFR32TWAL60y1-20" style="edgeStyle=orthogonalEdgeStyle;rounded=0;orthogonalLoop=1;jettySize=auto;html=1;" edge="1" parent="1">
          <mxGeometry relative="1" as="geometry">
            <mxPoint x="220" y="358.5" as="targetPoint" />
            <mxPoint x="140" y="359" as="sourcePoint" />
            <Array as="points">
              <mxPoint x="180" y="359" />
            </Array>
          </mxGeometry>
        </mxCell>
        <mxCell id="Lmu7C6fmFR32TWAL60y1-6" value="" style="points=[[0.35,0,0],[0.98,0.51,0],[1,0.71,0],[0.67,1,0],[0,0.795,0],[0,0.65,0]];verticalLabelPosition=bottom;html=1;verticalAlign=top;aspect=fixed;align=center;pointerEvents=1;shape=mxgraph.cisco19.user;strokeColor=none;gradientColor=#ffffff;fillColor=#FF9999;" vertex="1" parent="1">
          <mxGeometry x="60" y="328" width="69" height="69" as="geometry" />
        </mxCell>
        <mxCell id="Lmu7C6fmFR32TWAL60y1-7" value="" style="aspect=fixed;html=1;points=[];align=center;image;fontSize=12;image=img/lib/mscae/Kubernetes.svg;" vertex="1" parent="1">
          <mxGeometry x="665" y="644" width="50" height="48" as="geometry" />
        </mxCell>
        <mxCell id="Lmu7C6fmFR32TWAL60y1-27" style="edgeStyle=orthogonalEdgeStyle;rounded=0;orthogonalLoop=1;jettySize=auto;html=1;entryX=0.006;entryY=0.628;entryDx=0;entryDy=0;entryPerimeter=0;" edge="1" parent="1" source="Lmu7C6fmFR32TWAL60y1-13" target="Lmu7C6fmFR32TWAL60y1-18">
          <mxGeometry relative="1" as="geometry">
            <mxPoint x="430" y="600" as="targetPoint" />
          </mxGeometry>
        </mxCell>
        <mxCell id="Lmu7C6fmFR32TWAL60y1-28" style="edgeStyle=orthogonalEdgeStyle;rounded=0;orthogonalLoop=1;jettySize=auto;html=1;entryX=0;entryY=0.75;entryDx=0;entryDy=0;" edge="1" parent="1" source="Lmu7C6fmFR32TWAL60y1-13" target="Lmu7C6fmFR32TWAL60y1-14">
          <mxGeometry relative="1" as="geometry" />
        </mxCell>
        <mxCell id="Lmu7C6fmFR32TWAL60y1-29" style="edgeStyle=orthogonalEdgeStyle;rounded=0;orthogonalLoop=1;jettySize=auto;html=1;exitX=1;exitY=0.5;exitDx=0;exitDy=0;entryX=0;entryY=0.5;entryDx=0;entryDy=0;" edge="1" parent="1" source="Lmu7C6fmFR32TWAL60y1-13" target="Lmu7C6fmFR32TWAL60y1-8">
          <mxGeometry relative="1" as="geometry">
            <mxPoint x="570" y="850" as="targetPoint" />
          </mxGeometry>
        </mxCell>
        <mxCell id="Lmu7C6fmFR32TWAL60y1-13" value="Cloud Build" style="strokeColor=#dddddd;shadow=1;strokeWidth=1;rounded=1;absoluteArcSize=1;arcSize=2;align=center;verticalAlign=bottom;" vertex="1" parent="1">
          <mxGeometry x="380" y="328" width="160" height="86" as="geometry" />
        </mxCell>
        <mxCell id="Lmu7C6fmFR32TWAL60y1-14" value="Update k8s manifestsÂ " style="strokeColor=#dddddd;shadow=1;strokeWidth=1;rounded=1;absoluteArcSize=1;arcSize=2;align=center;verticalAlign=middle;" vertex="1" parent="1">
          <mxGeometry x="610" y="565" width="159" height="45" as="geometry" />
        </mxCell>
        <mxCell id="Lmu7C6fmFR32TWAL60y1-15" value="" style="html=1;fillColor=#5184F3;strokeColor=none;verticalAlign=top;labelPosition=center;verticalLabelPosition=bottom;align=center;spacingTop=-6;fontSize=11;fontStyle=1;fontColor=#999999;shape=mxgraph.gcp2.hexIcon;prIcon=container_builder" vertex="1" parent="1">
          <mxGeometry x="419" y="334.75" width="66" height="58.5" as="geometry" />
        </mxCell>
        <mxCell id="Lmu7C6fmFR32TWAL60y1-18" value="" style="strokeColor=#dddddd;shadow=1;strokeWidth=1;rounded=1;absoluteArcSize=1;arcSize=2;align=center;verticalAlign=bottom;" vertex="1" parent="1">
          <mxGeometry x="609" y="420" width="160" height="86" as="geometry" />
        </mxCell>
        <mxCell id="Lmu7C6fmFR32TWAL60y1-19" value="" style="html=1;fillColor=#5184F3;strokeColor=none;verticalAlign=top;labelPosition=center;verticalLabelPosition=bottom;align=center;spacingTop=-6;fontSize=11;fontStyle=1;fontColor=#999999;shape=mxgraph.gcp2.hexIcon;prIcon=container_registry" vertex="1" parent="1">
          <mxGeometry x="660" y="417.5" width="62" height="59.5" as="geometry" />
        </mxCell>
        <mxCell id="Lmu7C6fmFR32TWAL60y1-21" value="Commits code" style="text;html=1;align=center;verticalAlign=middle;resizable=0;points=[];autosize=1;strokeColor=none;" vertex="1" parent="1">
          <mxGeometry x="140" y="370" width="90" height="20" as="geometry" />
        </mxCell>
        <mxCell id="Lmu7C6fmFR32TWAL60y1-24" value="Trigger" style="text;html=1;align=center;verticalAlign=middle;resizable=0;points=[];autosize=1;strokeColor=none;" vertex="1" parent="1">
          <mxGeometry x="300" y="334.75" width="50" height="20" as="geometry" />
        </mxCell>
        <mxCell id="Lmu7C6fmFR32TWAL60y1-26" value="Build and push image &lt;br&gt;to container registry" style="text;html=1;align=center;verticalAlign=middle;resizable=0;points=[];autosize=1;strokeColor=none;" vertex="1" parent="1">
          <mxGeometry x="630" y="476" width="130" height="30" as="geometry" />
        </mxCell>
        <mxCell id="Lmu7C6fmFR32TWAL60y1-34" value="Developer" style="text;html=1;align=center;verticalAlign=middle;resizable=0;points=[];autosize=1;strokeColor=none;" vertex="1" parent="1">
          <mxGeometry x="56.5" y="404" width="70" height="20" as="geometry" />
        </mxCell>
        <mxCell id="Lmu7C6fmFR32TWAL60y1-35" value="" style="verticalLabelPosition=bottom;html=1;verticalAlign=top;align=center;strokeColor=none;shape=mxgraph.azure.github_code;pointerEvents=1;fillColor=#007FFF;" vertex="1" parent="1">
          <mxGeometry x="240" y="328" width="50" height="50" as="geometry" />
        </mxCell>
        <mxCell id="Lmu7C6fmFR32TWAL60y1-36" value="Github rep" style="text;html=1;align=center;verticalAlign=middle;resizable=0;points=[];autosize=1;strokeColor=none;" vertex="1" parent="1">
          <mxGeometry x="240" y="378" width="70" height="20" as="geometry" />
        </mxCell>
      </root>
    </mxGraphModel>
  </diagram>
</mxfile>
